<?xml version="1.0" encoding="utf-8"?>
<!-- Generator: Adobe Illustrator 22.1.0, SVG Export Plug-In . SVG Version: 6.00 Build 0)  -->
<svg version="1.1" id="Layer_1" xmlns="http://www.w3.org/2000/svg" xmlns:xlink="http://www.w3.org/1999/xlink" x="0px" y="0px"
	 width="66px" height="69px" viewBox="0 0 66 69" style="enable-background:new 0 0 66 69;" xml:space="preserve">
<style type="text/css">
	.st0{fill:none;}
	.st1{fill:#FFFFFF;}
	.st2{fill:#FEC325;}
</style>
<g>
	<path class="st0" d="M25.7,41.7l0.4,0.1l6.8,10.8l6.7-10.5L40,42c7.8-2.8,13-10.3,13-18.6c0-11-8.9-20-19.8-20s-19.8,8.9-19.8,19.8
		C13.3,31.3,18.2,38.6,25.7,41.7z M33.3,12.5c6.1,0,10.9,4.8,10.9,10.9c-0.1,6-5,10.9-10.9,10.9s-10.9-4.8-10.9-10.9
		C22.4,17.4,27.2,12.5,33.3,12.5z"/>
	<path class="st0" d="M33.3,31.5c4.5,0,8.1-3.5,8.1-8.1c-0.1-4.4-3.7-8.1-8.1-8.1c-4.4,0-8.1,3.5-8.1,8.1
		C25.2,27.8,28.8,31.5,33.3,31.5z"/>
	<g>
		<path class="st1" d="M65.3,66.3l-17-16.4c-0.6-0.6-1.4-0.6-2,0c-0.6,0.6-0.6,1.4,0,2l14.5,13.9H5.3l13.3-14c0.6-0.6,0.6-1.4,0-2
			c-0.6-0.6-1.4-0.6-2,0L1,66.2c-0.4,0.4-0.6,1-0.3,1.6c0.1,0.6,0.7,0.9,1.3,0.9h62.3c0.6,0,1-0.3,1.3-0.9
			C65.9,67.3,65.8,66.6,65.3,66.3z"/>
	</g>
	<g>
		<g>
			<path class="st2" d="M33.3,34.3c5.9,0,10.8-5,10.9-10.9c0-6.1-4.8-10.9-10.9-10.9s-10.9,5-10.9,10.9
				C22.4,29.5,27.4,34.3,33.3,34.3z M33.3,15.3c4.4,0,7.9,3.7,8.1,8.1c0,4.5-3.5,8.1-8.1,8.1s-8.1-3.7-8.1-8.1
				C25.2,18.9,28.9,15.3,33.3,15.3z"/>
		</g>
	</g>
	<g>
		<g>
			<path class="st2" d="M24.2,44.1l8.6,13.7l8.5-13.5C50,41,55.8,32.6,55.8,23.3c0-12.5-10.2-22.7-22.7-22.7S10.5,10.8,10.5,23.3
				C10.5,32.3,15.9,40.5,24.2,44.1z M33.2,3.4c10.9,0,19.8,8.9,19.8,20c0,8.2-5.2,15.7-13,18.6l-0.4,0.1l-6.7,10.5l-6.8-10.8
				l-0.4-0.1c-7.5-3.1-12.3-10.3-12.3-18.4C13.3,12.3,22.3,3.4,33.2,3.4z"/>
		</g>
	</g>
</g>
</svg>
